PathFileType	4	(X/Y/Z)	S01_0007_Gait_markers.trc
DataRate	CameraRate	NumFrames	NumMarkers	Units	OrigDataRate	OrigDataStartFrame	OrigNumFrames
250.000000	250.000000	4	54	mm	250.000000	226	302
Frame#	Time	HEAD_ANT			R_HEAD			L_HEAD			C7			R_BACK			L_BACK			STERNUM			R_ACROMION			R_HUM_PROX			R_HUM_ANT			R_HUM_POST			R_ELBOW_LAT			R_ELBOW_MED			R_FOREARM			R_WIRST_LAT			R_WRITS_MED			R_HAND			L_ACROMION			L_HUM_PROX			L_HUM_ANT			L_HUM_POST			L_ELBOW_LAT			L_ELBOW_MED			L_FOREARM			L_WRIST_LAT			L_WIRST_MED			L_HAND			R_ILIAC			SACRUM			L_ILIAC			R_GTROCH			R_THIGH__1			R_THIGH_2			R_THIGH_3			R_THIGH_4			R_SHANK_1			R_SHANK_2			R_SHANK_3			R_SHANK_4			R_HEEL			R_FOOT_LAT			R_FOOT_MED			L_GTROCH			L_THIGH_1			L_THIGH_2			L_THIGH_3			L_THIGH_4			L_SHANK_1			L_SHANK_2			L_SHANK_3			L_SHANK_4			L_HEEL			L_FOOT_LAT			L_FOOT_MED			
		X1	Y1	Z1	X2	Y2	Z2	X3	Y3	Z3	X4	Y4	Z4	X5	Y5	Z5	X6	Y6	Z6	X7	Y7	Z7	X8	Y8	Z8	X9	Y9	Z9	X10	Y10	Z10	X11	Y11	Z11	X12	Y12	Z12	X13	Y13	Z13	X14	Y14	Z14	X15	Y15	Z15	X16	Y16	Z16	X17	Y17	Z17	X18	Y18	Z18	X19	Y19	Z19	X20	Y20	Z20	X21	Y21	Z21	X22	Y22	Z22	X23	Y23	Z23	X24	Y24	Z24	X25	Y25	Z25	X26	Y26	Z26	X27	Y27	Z27	X28	Y28	Z28	X29	Y29	Z29	X30	Y30	Z30	X31	Y31	Z31	X32	Y32	Z32	X33	Y33	Z33	X34	Y34	Z34	X35	Y35	Z35	X36	Y36	Z36	X37	Y37	Z37	X38	Y38	Z38	X39	Y39	Z39	X40	Y40	Z40	X41	Y41	Z41	X42	Y42	Z42	X43	Y43	Z43	X44	Y44	Z44	X45	Y45	Z45	X46	Y46	Z46	X47	Y47	Z47	X48	Y48	Z48	X49	Y49	Z49	X50	Y50	Z50	X51	Y51	Z51	X52	Y52	Z52	X53	Y53	Z53	X54	Y54	Z54	

227	0.904	1469.995727539062	1758.210571289062	-397.3194885253902	1410.181274414062	1707.141235351562	-319.0541381835934	1413.598999023438	1707.282104492188	-467.5083312988277	1276.600952148438	1535.890991210938	-393.585296630859	1206.524658203125	1339.727294921875	-322.0808105468747	1207.17431640625	1341.479736328125	-466.1663818359372	1456.815551757812	1377.023315429688	-387.0729064941403	1349.975463867188	1490.996826171875	-218.3156585693356	1304.466186523438	1336.119384765625	-120.8853073120114	1360.463500976562	1247.8984375	-113.2985534667966	1239.626098632812	1257.087036132812	-107.4327545166013	1282.46337890625	1148.224731445312	-93.02175140380834	1253.571533203125	1143.579467773438	-170.5804901123044	1387.662475585938	965.379638671875	-101.2005767822263	1424.613525390625	901.077880859375	-144.7350769042967	1360.37841796875	875.2731323242188	-101.4200515747068	1433.482666015625	812.469482421875	-90.12434387207013	1360.617309570312	1490.392456054688	-556.8522338867184	1342.08837890625	1324.563842773438	-655.0453491210934	1404.355834960938	1243.590942382813	-652.0397949218748	1284.182739257812	1247.459594726563	-683.774963378906	1344.477905273438	1143.521118164063	-690.0661621093748	1289.933837890625	1135.205810546875	-636.0836791992185	1465.379028320312	980.6093139648439	-651.2267456054685	1503.302368164062	932.1130371093751	-596.1038818359373	1460.968139648438	895.4975585937501	-652.7821655273435	1548.048583984375	852.4367675781251	-633.4072265624998	1352.016723632812	1092.372924804688	-215.1850433349607	1225.157470703125	1060.041259765625	-383.3593444824216	1351.087768554688	1080.538940429688	-558.2504882812498	1314.5146484375	940.6101684570312	-192.2890319824217	1421.2958984375	667.4906616210938	-201.6504669189452	1473.16357421875	695.3194580078125	-197.1256561279295	1500.119140625	594.5633544921875	-224.6651763916014	1435.529541015625	587.2235717773438	-218.8354644775389	1377.4384765625	389.8271179199219	-212.2765960693359	1422.703002929688	351.6069641113282	-222.8568420410155	1391.153564453125	272.4122619628907	-240.4861907958984	1332.896118164062	299.7512207031251	-231.7719116210937	1227.529541015625	110.3606033325196	-315.0525512695312	1370.49609375	42.14614868164067	-219.1138000488281	1433.275756835938	44.28944015502936	-300.9533996582031	1312.811889648438	967.7655639648439	-560.142150878906	1387.046508789062	674.4481201171876	-533.8776855468749	1335.148681640625	696.9337158203126	-552.1029663085936	1311.303344726562	597.2188720703126	-517.2008666992186	1373.11279296875	595.0036010742189	-505.1891174316405	1303.132934570312	329.4093017578126	-493.0924377441406	1245.102172851562	315.2083435058595	-498.8568115234374	1229.894775390625	230.9480133056642	-479.8835144042968	1293.21240234375	229.5332946777345	-467.5190734863281	1163.731567382812	51.86285018920908	-405.1367797851562	1341.152221679688	19.81150245666514	-469.5076293945312	1374.469848632812	28.65151023864754	-360.8080444335938	
228	0.908	1475.4755859375	1758.0517578125	-397.1091613769527	1415.68701171875	1706.758666992188	-318.9154663085934	1418.934448242188	1707.188598632812	-467.3245239257809	1282.05517578125	1535.696411132812	-393.656829833984	1212.282958984375	1339.5126953125	-322.3990478515622	1212.727172851562	1341.419311523438	-466.4245910644528	1462.160888671875	1376.695434570312	-387.3046569824216	1355.22802734375	1490.713134765625	-218.2556457519528	1309.334106445312	1335.980346679688	-120.9513244628903	1365.130126953125	1247.541259765625	-112.5688858032224	1244.24609375	1256.8076171875	-107.3802795410153	1286.504638671875	1147.951416015625	-92.98780822753881	1261.335083007812	1142.523803710938	-172.0077056884763	1392.23291015625	965.2489013671875	-100.7337646484373	1429.419921875	901.0577392578125	-144.1194152832029	1364.960327148438	875.1043090820312	-101.0601501464842	1438.110595703125	812.3118286132812	-89.5767288208006	1366.1396484375	1490.22900390625	-556.8438720703122	1348.271362304688	1324.38818359375	-655.3044433593747	1410.599609375	1243.582763671875	-652.0468749999998	1290.558349609375	1247.381958007813	-684.2216796874998	1350.876953125	1143.44091796875	-690.547912597656	1296.1142578125	1135.0107421875	-636.8549804687498	1472.556518554688	981.1758422851564	-650.7899780273435	1510.427978515625	932.8325195312501	-595.3742065429685	1468.54296875	895.9942016601564	-652.2872314453123	1555.848754882812	853.3590698242189	-632.2741699218748	1357.269775390625	1092.199462890625	-215.1967773437497	1230.493286132812	1059.741821289062	-383.1864624023435	1356.111572265625	1080.353149414063	-558.122375488281	1320.14306640625	940.4323120117188	-192.1477966308592	1428.001342773438	667.5097045898438	-202.3358306884764	1479.597778320312	696.0060424804688	-197.630905151367	1507.09375	595.0048828125	-225.4158935546874	1442.720336914062	587.4970092773438	-219.279083251953	1387.812744140625	388.4120178222657	-212.4742279052734	1433.764282226562	351.1589660644532	-223.6952362060546	1403.870849609375	271.3797302246094	-240.8940124511718	1345.0107421875	297.5397644042969	-231.5025787353515	1243.73681640625	105.4065017700196	-314.992919921875	1388.336547851562	40.73294067382817	-218.9886779785156	1451.0048828125	44.11151504516608	-300.623779296875	1317.302612304688	967.6078491210939	-560.158508300781	1389.732055664062	674.3793334960939	-534.4498901367186	1337.390991210938	697.0245361328126	-551.7481079101561	1313.05712890625	597.3718872070314	-517.1171264648436	1374.871704101562	594.8777465820314	-505.6339721679686	1303.457397460938	329.5282592773439	-493.1595458984374	1245.438232421875	315.4523925781251	-498.8094177246093	1230.1787109375	231.3846588134767	-479.7934265136718	1293.405639648438	229.7832183837892	-467.4883117675781	1163.823364257812	52.3100242614747	-404.9498291015625	1341.058471679688	19.77816009521495	-469.4290466308594	1374.561767578125	28.66025543212899	-360.845947265625	
229	0.912	1481.03076171875	1757.759521484375	-396.9746093749996	1421.05322265625	1706.341552734375	-318.8209838867184	1424.460205078125	1706.898559570312	-467.1863403320309	1287.568359375	1535.347534179688	-393.8695678710934	1217.734375	1339.148315429688	-322.5823669433591	1218.06591796875	1341.159912109375	-466.7174072265622	1467.535522460938	1376.198120117188	-387.1944580078122	1360.522216796875	1490.325439453125	-218.1996002197262	1314.189208984375	1335.696655273438	-121.0119171142575	1369.896362304688	1247.259887695312	-112.3668594360349	1248.933227539062	1256.524291992188	-107.471755981445	1291.502685546875	1147.77197265625	-93.05304718017553	1265.836181640625	1142.316040039062	-171.8418121337888	1396.933227539062	965.0324096679688	-100.2776870727537	1434.2060546875	900.8551635742188	-143.5473327636717	1369.613037109375	874.8543701171875	-100.9481048583982	1442.76318359375	812.1630249023438	-88.88292694091778	1371.8515625	1489.975952148438	-556.8570556640622	1354.464599609375	1324.317504882813	-655.5086669921872	1416.85302734375	1243.571533203125	-651.9440917968748	1296.857421875	1247.182983398438	-684.687561035156	1357.411865234375	1143.295288085938	-690.7736206054685	1302.734619140625	1134.58935546875	-637.2337646484373	1479.677978515625	981.6260375976564	-650.3969726562498	1517.518676757812	933.6542358398439	-594.9022216796873	1476.130981445312	896.6218261718751	-651.8092651367185	1563.540771484375	854.3889770507814	-631.3288574218748	1362.581665039062	1092.010864257812	-215.0885314941404	1235.604858398438	1059.476928710938	-382.7862243652341	1360.6240234375	1080.047973632813	-558.1485595703123	1325.78759765625	940.1893920898438	-192.2371826171873	1434.54248046875	667.602783203125	-202.7931518554686	1485.886352539062	696.26025390625	-197.5876007080077	1513.97216796875	595.5489501953125	-226.0395050048827	1449.776611328125	587.7266845703125	-219.7218170166014	1398.032104492188	386.8501892089844	-212.7667541503905	1444.91650390625	350.1810607910157	-225.4526214599609	1416.451538085938	270.2550048828126	-241.185562133789	1357.09765625	295.0902709960938	-231.6578216552734	1263.5927734375	99.2431716918946	-317.3922729492188	1406.141723632812	39.29505157470708	-218.8466186523438	1468.708984375	43.9481163024903	-300.5256958007812	1321.77734375	967.3353881835939	-559.8817749023435	1391.5322265625	673.8287963867189	-534.2008666992186	1339.807739257812	697.2042236328126	-552.0137939453124	1314.784912109375	597.5823364257814	-517.2098388671874	1376.258911132812	594.5266113281251	-506.0262451171874	1303.870239257812	329.7330017089845	-493.2543945312499	1245.79150390625	315.8382263183595	-498.7321166992187	1230.410278320312	231.7115173339845	-479.5523071289062	1293.643310546875	229.9881439208986	-467.6058959960937	1163.911010742188	52.75555801391611	-404.7280578613281	1340.961669921875	19.78779983520518	-469.4075927734375	1374.654663085938	28.77471351623543	-360.8692932128906	
230	0.916	1486.415649414062	1757.473510742188	-396.8020629882809	1426.60498046875	1705.95263671875	-318.5678405761715	1429.998046875	1706.7509765625	-467.0583190917965	1293.112426757812	1535.148071289062	-393.9521179199215	1222.407592773438	1338.829467773438	-322.9313354492185	1223.327880859375	1340.857421875	-466.6881713867185	1472.916259765625	1375.8642578125	-387.2355651855466	1365.977294921875	1489.946411132812	-218.2849273681637	1318.185791015625	1335.312744140625	-121.7941436767575	1374.670532226562	1246.830444335938	-112.3336410522458	1253.789672851562	1256.359619140625	-107.7599029541013	1295.990478515625	1147.598876953125	-93.03166198730443	1267.869750976562	1142.82080078125	-170.695373535156	1401.557006835938	964.8247680664062	-99.91451263427713	1438.980346679688	900.6366577148438	-143.1330413818357	1374.332763671875	874.630126953125	-100.7999191284178	1447.468627929688	811.9869384765625	-88.35870361328107	1377.453125	1489.729248046875	-556.9003906249997	1360.390014648438	1324.062622070313	-655.6295776367184	1422.92626953125	1243.444580078125	-651.9172363281248	1303.215942382812	1246.961181640625	-685.092834472656	1363.868530273438	1143.10107421875	-691.1463623046873	1308.985229492188	1134.35302734375	-637.7888183593748	1486.86962890625	982.0270385742189	-649.811096191406	1524.645263671875	934.3760375976564	-594.1102294921873	1483.811645507812	896.8627319335939	-651.1635742187498	1571.254272460938	855.3156127929689	-630.2965087890623	1367.814819335938	1091.513427734375	-215.0277099609372	1240.440307617188	1059.30517578125	-383.1325073242185	1365.363891601562	1079.60986328125	-558.4129638671873	1331.566772460938	939.70458984375	-192.1324615478514	1441.180786132812	667.525146484375	-203.0783538818358	1492.265625	696.5602416992188	-197.9340820312499	1520.598754882812	595.749755859375	-226.8300781249999	1456.349243164062	587.685302734375	-220.1955108642577	1408.271118164062	385.4997863769532	-212.9471740722655	1455.793212890625	349.6238708496094	-226.0371704101562	1429.17822265625	269.2692260742188	-241.5775604248046	1369.5419921875	292.3877868652344	-232.6408996582031	1279.5810546875	95.73209381103523	-316.3343811035156	1423.806640625	38.04291152954107	-218.6288757324219	1486.33984375	43.81840896606452	-300.8126220703125	1326.379028320312	967.0845336914064	-559.8036499023435	1393.809448242188	673.3651733398439	-534.5004882812499	1342.005615234375	697.1159057617189	-551.5536499023436	1316.538452148438	597.8364257812501	-517.1406860351561	1378.088989257812	594.0697021484376	-506.1799926757811	1304.940307617188	329.8401794433595	-493.5410766601562	1246.099975585938	316.1635131835939	-498.6143493652343	1230.56591796875	232.1439971923829	-479.4692077636718	1293.946411132812	230.1956481933595	-467.8004150390624	1164.015502929688	53.23515701293955	-404.5711364746094	1340.872436523438	19.78028869628917	-469.3368530273438	1374.70703125	28.77661514282235	-360.8998107910156	
